<?xml version="1.0" encoding="UTF-8"?>
<svg width="149px" height="29px" viewBox="0 0 149 29" version="1.1" xmlns="http://www.w3.org/2000/svg" xmlns:xlink="http://www.w3.org/1999/xlink">
    <title>Logo-DC-Blanc</title>
    <g id="Presentación." stroke="none" stroke-width="1" fill="none" fill-rule="evenodd">
        <g id="Artboard-Copy-5" transform="translate(-269.000000, -1008.000000)" fill="#646161" fill-rule="nonzero" stroke="#646161">
            <g id="Logo-DC-Blanc" transform="translate(270.000000, 1009.000000)">
                <path d="M0,13.2968742 C0,13.8705226 0.45597688,14.3264995 1.05904308,14.3264995 L3.78019544,14.3264995 C5.42759579,14.3264995 6.81023537,14.002903 7.88398739,13.0026956 C8.84006794,12.1054508 9.3254627,10.8846094 9.3254627,9.31075376 C9.3254627,7.86927845 8.9136126,6.70727285 8.10462136,5.83944588 C7.03086935,4.67744028 5.69235656,4.30971698 3.98612049,4.30971698 L1.05904308,4.30971698 C0.45597688,4.30971698 0,4.76569387 0,5.3393422 L0,13.2968742 Z M2.11808616,6.08949772 L3.67723292,6.08949772 C4.89807425,6.08949772 5.79531909,6.39838528 6.38367635,7.03086935 C6.89848896,7.57509982 7.1485408,8.32525534 7.1485408,9.31075376 C7.1485408,10.2962522 6.8690711,11.0758256 6.32484063,11.620056 C5.7070655,12.2378312 4.80982066,12.5467187 3.6183972,12.5467187 L2.11808616,12.5467187 L2.11808616,6.08949772 Z M10.9405152,13.2968742 C10.9405152,13.8705226 11.396492,14.3264995 11.9995582,14.3264995 L17.8095863,14.3264995 C18.3391078,14.3264995 18.72154,13.8999404 18.72154,13.3851278 C18.72154,12.8703152 18.3243989,12.4437562 17.8095863,12.4437562 L13.0586013,12.4437562 L13.0586013,10.2227075 L17.0447218,10.2227075 C17.5301166,10.2227075 17.9419666,9.8255664 17.9419666,9.31075376 C17.9419666,8.78123222 17.5301166,8.3546732 17.0447218,8.3546732 L13.0586013,8.3546732 L13.0586013,6.19246024 L17.8095863,6.19246024 C18.3391078,6.19246024 18.72154,5.76590122 18.72154,5.25108861 C18.72154,4.72156707 18.3391078,4.30971698 17.8095863,4.30971698 L11.9995582,4.30971698 C11.396492,4.30971698 10.9405152,4.76569387 10.9405152,5.3393422 L10.9405152,13.2968742 Z M13.4116157,2.48580946 C13.4116157,2.82411488 13.7057943,3.10358459 14.0588087,3.10358459 C14.3088605,3.10358459 14.5147856,2.9712042 14.6912927,2.6917345 L15.5885376,1.22084133 C15.720918,1.00020735 15.7797537,0.82370017 15.7797537,0.72073765 C15.7797537,0.323596497 15.4267393,0 15.0148892,0 C14.7060017,0 14.4706588,0.161798249 14.3235694,0.485394746 L13.5439961,2.02983257 C13.4557425,2.20633975 13.4116157,2.35342907 13.4116157,2.48580946 Z M20.1895032,13.4439636 C20.1895032,14.0176119 20.660189,14.4735888 21.2485463,14.4735888 C21.8221946,14.4735888 22.3075893,14.0176119 22.3075893,13.4439636 L22.3075893,11.3111685 L24.5727648,11.3111685 C25.5288454,11.3111685 26.2937098,11.0905345 26.8673582,10.6345576 C27.6910583,10.0020735 28.191162,9.00186619 28.191162,7.81044273 C28.191162,6.67785499 27.7351851,5.69235656 26.9703207,5.0598725 C26.3525455,4.55976882 25.5582632,4.30971698 24.5727648,4.30971698 L21.2485463,4.30971698 C20.660189,4.30971698 20.1895032,4.76569387 20.1895032,5.3393422 L20.1895032,13.4439636 Z M22.3075893,6.16304238 L24.2932951,6.16304238 C24.7639809,6.16304238 25.1317042,6.2660049 25.4111739,6.45722101 C25.8377329,6.73669071 26.043658,7.17795866 26.043658,7.81044273 C26.043658,8.44292679 25.823024,8.9136126 25.3817561,9.19308231 C25.1169953,9.36958949 24.7345631,9.45784308 24.2491683,9.45784308 L22.3075893,9.45784308 L22.3075893,6.16304238 Z M28.8648428,13.5027993 C28.8648428,14.0323208 29.2766929,14.4735888 29.8797591,14.4735888 C30.4239896,14.4735888 30.762295,14.2382459 30.9240933,13.7675601 L31.4389059,12.2966669 L35.072012,12.2966669 L35.5868246,13.7675601 C35.7044961,14.2235369 36.0869283,14.4735888 36.6017409,14.4735888 C37.234225,14.4735888 37.6754929,14.0911566 37.6754929,13.5027993 C37.6754929,13.3704189 37.6460751,13.2086207 37.5725304,13.0321135 L34.7925423,5.26579754 C34.5424905,4.53035096 34.0423868,4.16262767 33.2922313,4.16262767 C32.5567847,4.16262767 32.056681,4.53035096 31.8066292,5.26579754 L28.9825143,13.0321135 C28.9089696,13.2233296 28.8648428,13.3704189 28.8648428,13.5027993 Z M33.2775224,6.8249443 L34.5571994,10.5904308 L31.9684274,10.5904308 L33.2775224,6.8249443 Z M38.8345685,13.4439636 C38.8345685,14.0176119 39.2905454,14.4735888 39.8936116,14.4735888 C40.4672599,14.4735888 40.9526547,14.0176119 40.9526547,13.4439636 L40.9526547,10.8404827 L43.0119051,10.8404827 L45.0858645,13.9734851 C45.3064985,14.3117905 45.615386,14.4735888 45.9831093,14.4735888 C46.5714666,14.4735888 47.0421524,14.002903 47.0421524,13.3998368 C47.0421524,13.2086207 46.9833167,13.0174045 46.8656452,12.8408974 L45.2182449,10.4727594 C45.4682967,10.3550879 45.7036396,10.2079986 45.9242736,10.0167825 C46.6744291,9.36958949 47.0421524,8.54588931 47.0421524,7.56039089 C47.0421524,6.45722101 46.6008844,5.53055831 45.8801468,4.98632784 C45.2623717,4.53035096 44.4239626,4.30971698 43.3502105,4.30971698 L39.8936116,4.30971698 C39.2905454,4.30971698 38.8345685,4.76569387 38.8345685,5.3393422 L38.8345685,13.4439636 Z M40.9526547,6.10420665 L43.1884123,6.10420665 C43.6590981,6.10420665 44.0415303,6.19246024 44.335709,6.38367635 C44.7034323,6.64843712 44.8946484,7.04557828 44.8946484,7.58980875 C44.8946484,8.14874816 44.6887233,8.56059824 44.2915822,8.81065008 C44.0268214,8.97244833 43.6443892,9.06070192 43.1589944,9.06070192 L40.9526547,9.06070192 L40.9526547,6.10420665 Z M48.7013317,4.30971698 C48.2159369,4.30971698 47.7893779,4.72156707 47.7893779,5.25108861 C47.7893779,5.76590122 48.2159369,6.19246024 48.7013317,6.19246024 L51.1283054,6.19246024 L51.1283054,13.4439636 C51.1283054,14.0176119 51.6137001,14.4735888 52.1873485,14.4735888 C52.7609968,14.4735888 53.2463915,14.0176119 53.2463915,13.4439636 L53.2463915,6.19246024 L55.6880742,6.19246024 C56.2028868,6.19246024 56.600028,5.76590122 56.600028,5.25108861 C56.600028,4.72156707 56.2028868,4.30971698 55.6880742,4.30971698 L48.7013317,4.30971698 Z M57.6267232,13.2968742 C57.6267232,13.8705226 58.0827001,14.3264995 58.6857663,14.3264995 L64.4957943,14.3264995 C65.0253158,14.3264995 65.407748,13.8999404 65.407748,13.3851278 C65.407748,12.8703152 65.0106069,12.4437562 64.4957943,12.4437562 L59.7448093,12.4437562 L59.7448093,10.2227075 L63.7309298,10.2227075 C64.2163246,10.2227075 64.6281747,9.8255664 64.6281747,9.31075376 C64.6281747,8.78123222 64.2163246,8.3546732 63.7309298,8.3546732 L59.7448093,8.3546732 L59.7448093,6.19246024 L64.4957943,6.19246024 C65.0253158,6.19246024 65.407748,5.76590122 65.407748,5.25108861 C65.407748,4.72156707 65.0253158,4.30971698 64.4957943,4.30971698 L58.6857663,4.30971698 C58.0827001,4.30971698 57.6267232,4.76569387 57.6267232,5.3393422 L57.6267232,13.2968742 Z M66.8757112,13.4880904 C66.8757112,14.0323208 67.2875613,14.4735888 67.8906275,14.4735888 C68.4936937,14.4735888 68.9202527,14.0323208 68.9202527,13.4880904 L68.9202527,7.98694991 L71.0236299,11.5318024 C71.2736818,11.9583615 71.6266961,12.1789954 72.0532551,12.1789954 C72.4798142,12.1789954 72.8328285,11.9583615 73.0828804,11.5318024 L75.1862576,7.98694991 L75.1862576,13.4880904 C75.1862576,14.0323208 75.5981077,14.4735888 76.2011739,14.4735888 C76.8042401,14.4735888 77.2307991,14.0323208 77.2307991,13.4880904 L77.2307991,5.47172259 C77.2307991,4.72156707 76.7012776,4.1773366 75.8922863,4.1773366 C75.3774737,4.1773366 74.9950415,4.39797057 74.7449896,4.83923853 L72.0385462,9.50196987 L69.3615206,4.83923853 C69.0967599,4.39797057 68.7143276,4.1773366 68.199515,4.1773366 C67.4199417,4.1773366 66.8757112,4.72156707 66.8757112,5.47172259 L66.8757112,13.4880904 Z M79.2577016,13.2968742 C79.2577016,13.8705226 79.7136785,14.3264995 80.3167447,14.3264995 L86.1267727,14.3264995 C86.6562943,14.3264995 87.0387265,13.8999404 87.0387265,13.3851278 C87.0387265,12.8703152 86.6415854,12.4437562 86.1267727,12.4437562 L81.3757878,12.4437562 L81.3757878,10.2227075 L85.3619083,10.2227075 C85.847303,10.2227075 86.2591531,9.8255664 86.2591531,9.31075376 C86.2591531,8.78123222 85.847303,8.3546732 85.3619083,8.3546732 L81.3757878,8.3546732 L81.3757878,6.19246024 L86.1267727,6.19246024 C86.6562943,6.19246024 87.0387265,5.76590122 87.0387265,5.25108861 C87.0387265,4.72156707 86.6562943,4.30971698 86.1267727,4.30971698 L80.3167447,4.30971698 C79.7136785,4.30971698 79.2577016,4.76569387 79.2577016,5.3393422 L79.2577016,13.2968742 Z M88.5066897,13.5175082 C88.5066897,14.0470298 88.9626665,14.4735888 89.506897,14.4735888 C90.0805454,14.4735888 90.5218133,14.0470298 90.5218133,13.5175082 L90.5218133,7.83986059 L95.1845446,13.9440672 C95.4345965,14.2970816 95.7876108,14.4735888 96.2141699,14.4735888 C96.8760718,14.4735888 97.4350112,13.9734851 97.4350112,13.3262921 L97.4350112,5.14812609 C97.4350112,4.61860455 96.9643254,4.1773366 96.4200949,4.1773366 C95.8758644,4.1773366 95.4051786,4.61860455 95.4051786,5.14812609 L95.4051786,10.8110648 L90.7424473,4.72156707 C90.4776865,4.35384378 90.1393811,4.1773366 89.7128221,4.1773366 C89.0509201,4.1773366 88.5066897,4.69214921 88.5066897,5.32463327 L88.5066897,13.5175082 Z M99.37366,4.30971698 C98.8882654,4.30971698 98.4617064,4.72156707 98.4617064,5.25108861 C98.4617064,5.76590122 98.8882654,6.19246024 99.37366,6.19246024 L101.800634,6.19246024 L101.800634,13.4439636 C101.800634,14.0176119 102.286029,14.4735888 102.859677,14.4735888 C103.433325,14.4735888 103.91872,14.0176119 103.91872,13.4439636 L103.91872,6.19246024 L106.360403,6.19246024 C106.875215,6.19246024 107.272356,5.76590122 107.272356,5.25108861 C107.272356,4.72156707 106.875215,4.30971698 106.360403,4.30971698 L99.37366,4.30971698 Z M92.1545047,16.7849923 C92.742862,16.7849923 93.2135478,17.2409692 93.2135478,17.8146176 L93.2135478,17.8146176 L93.2135478,26.0516193 C93.2135478,26.6252676 92.7281531,27.0812445 92.1545047,27.0812445 C91.5661475,27.0812445 91.0954616,26.6252676 91.0954616,26.0516193 L91.0954616,26.0516193 L91.0954616,17.8146176 C91.0954616,17.2409692 91.5661475,16.7849923 92.1545047,16.7849923 Z M28.790984,16.7839144 L28.9972232,16.7849923 C29.8503413,16.7849923 30.6152057,16.9026638 31.2771076,17.1527156 C31.850756,17.3733496 32.1302257,17.711655 32.1302257,18.1676319 C32.1302257,18.7412802 31.6889577,19.1531303 31.1447273,19.1531303 C30.6593325,19.1531303 30.1003931,18.6824445 28.9530964,18.6824445 C27.2321514,18.6824445 25.8348029,20.1092109 25.8348029,21.9184095 C25.8348029,22.8597811 26.1289816,23.6393545 26.7320478,24.2424207 C27.335114,24.8454869 28.0705605,25.1543745 28.9530964,25.1543745 C30.3798628,25.1543745 30.6593325,24.6542708 31.2918166,24.6542708 C31.836047,24.6542708 32.277315,25.0661209 32.277315,25.6397692 C32.277315,26.110455 31.9095917,26.4487605 31.3947791,26.6693944 C30.6740414,26.9488641 29.8650502,27.0812445 28.9678054,27.0812445 C25.8936386,27.0812445 23.6137542,25.0808298 23.6137542,21.9184095 C23.5549185,19.0648767 26.1731083,16.7114477 28.9972232,16.7849923 L28.790984,16.7839144 Z M35.6280214,17.1674246 C37.5990183,16.3731422 40.1730813,16.8438281 41.526303,18.2117587 C42.9824872,19.447309 43.5561356,22.1096256 42.6588908,24.0512046 C41.8646084,25.9339478 39.9965741,27.0812445 37.7313986,27.0812445 C34.7601944,27.1400802 32.3185118,24.9778673 32.3626386,21.9478274 C32.3626386,19.6238161 33.7011514,17.8881622 35.6280214,17.1674246 Z M53.7170774,16.7849923 C54.5260686,16.7849923 55.0555901,17.3292228 55.0555901,18.0793783 L55.0555901,18.0793783 L55.0555901,26.0957461 C55.0555901,26.6399766 54.6290311,27.0812445 54.0259649,27.0812445 C53.4228987,27.0812445 53.0110486,26.6399766 53.0110486,26.0957461 L53.0110486,26.0957461 L53.0110486,20.5946056 L50.9076714,24.1394582 C50.6576196,24.5660172 50.3046052,24.7866512 49.8780462,24.7866512 C49.4514872,24.7866512 49.0984728,24.5660172 48.848421,24.1394582 L48.848421,24.1394582 L46.7450437,20.5946056 L46.7450437,26.0957461 C46.7450437,26.6399766 46.3184847,27.0812445 45.7154185,27.0812445 C45.1123523,27.0812445 44.7005022,26.6399766 44.7005022,26.0957461 L44.7005022,26.0957461 L44.7005022,18.0793783 C44.7005022,17.3292228 45.2447327,16.7849923 46.0243061,16.7849923 C46.5391187,16.7849923 46.9215509,17.0056263 47.1863117,17.4468943 L47.1863117,17.4468943 L49.8633373,22.1096256 L52.5697807,17.4468943 C52.8198325,17.0056263 53.2022648,16.7849923 53.7170774,16.7849923 Z M145.569753,16.7849923 C146.113983,16.7849923 146.584669,17.2262603 146.584669,17.7557818 L146.584669,17.7557818 L146.584669,25.9339478 C146.584669,26.5811408 146.02573,27.0812445 145.363828,27.0812445 C144.937269,27.0812445 144.584254,26.9047373 144.334203,26.551723 L144.334203,26.551723 L139.671471,20.4475163 L139.671471,26.125164 C139.671471,26.6546855 139.230203,27.0812445 138.656555,27.0812445 C138.112324,27.0812445 137.656348,26.6546855 137.656348,26.125164 L137.656348,26.125164 L137.656348,17.932289 C137.656348,17.2998049 138.200578,16.7849923 138.86248,16.7849923 C139.289039,16.7849923 139.627344,16.9614995 139.892105,17.3292228 L139.892105,17.3292228 L144.554837,23.4187205 L144.554837,17.7557818 C144.554837,17.2262603 145.025522,16.7849923 145.569753,16.7849923 Z M66.0990678,16.7849923 C66.9080591,16.7849923 67.4375806,17.3292228 67.4375806,18.0793783 L67.4375806,18.0793783 L67.4375806,26.0957461 C67.4375806,26.6399766 67.0110216,27.0812445 66.4079554,27.0812445 C65.8048892,27.0812445 65.3930391,26.6399766 65.3930391,26.0957461 L65.3930391,26.0957461 L65.3930391,20.5946056 L63.2896619,24.1394582 C63.03961,24.5660172 62.6865957,24.7866512 62.2600367,24.7866512 C61.8334776,24.7866512 61.4804633,24.5660172 61.2304114,24.1394582 L61.2304114,24.1394582 L59.1270342,20.5946056 L59.1270342,26.0957461 C59.1270342,26.6399766 58.7004752,27.0812445 58.097409,27.0812445 C57.4943428,27.0812445 57.0824927,26.6399766 57.0824927,26.0957461 L57.0824927,26.0957461 L57.0824927,18.0793783 C57.0824927,17.3292228 57.6267232,16.7849923 58.4062966,16.7849923 C58.9211092,16.7849923 59.3035414,17.0056263 59.5683022,17.4468943 L59.5683022,17.4468943 L62.2453277,22.1096256 L64.9517712,17.4468943 C65.201823,17.0056263 65.5842552,16.7849923 66.0990678,16.7849923 Z M128.583867,17.1674246 C130.554864,16.3731422 133.128927,16.8438281 134.482148,18.2117587 C135.938333,19.447309 136.511981,22.1096256 135.614736,24.0512046 C134.820454,25.9339478 132.952419,27.0812445 130.687244,27.0812445 C127.71604,27.1400802 125.274357,24.9778673 125.318484,21.9478274 C125.318484,19.6238161 126.656997,17.8881622 128.583867,17.1674246 Z M122.644388,16.7849923 C123.232746,16.7849923 123.703431,17.2409692 123.703431,17.8146176 L123.703431,17.8146176 L123.703431,26.0516193 C123.703431,26.6252676 123.218037,27.0812445 122.644388,27.0812445 C122.056031,27.0812445 121.585345,26.6252676 121.585345,26.0516193 L121.585345,26.0516193 L121.585345,17.8146176 C121.585345,17.2409692 122.056031,16.7849923 122.644388,16.7849923 Z M77.0837098,16.7849923 C77.6573581,16.7849923 78.1427529,17.2409692 78.1427529,17.8146176 L78.1427529,17.8146176 L78.1427529,22.9774526 C78.1427529,24.1100403 77.8338653,25.0219941 77.2307991,25.7427317 C76.4512257,26.6399766 75.303929,27.0812445 73.7889091,27.0812445 C72.2738891,27.0812445 71.1265924,26.6399766 70.3470191,25.7427317 C69.7439529,25.0219941 69.4350653,24.1100403 69.4350653,22.9774526 L69.4350653,22.9774526 L69.4350653,17.8146176 C69.4350653,17.2409692 69.92046,16.7849923 70.4941084,16.7849923 C71.0971746,16.7849923 71.5531515,17.2409692 71.5531515,17.8146176 L71.5531515,17.8146176 L71.5531515,22.7274007 C71.5531515,23.4481384 71.7149497,24.0217867 72.0532551,24.4336368 C72.4209784,24.9043226 72.9946268,25.1396655 73.7742001,25.1396655 C74.5684825,25.1396655 75.1568397,24.9043226 75.524563,24.4336368 C75.8628684,24.0217867 76.0246667,23.4481384 76.0246667,22.7274007 L76.0246667,22.7274007 L76.0246667,17.8146176 C76.0246667,17.2409692 76.4806436,16.7849923 77.0837098,16.7849923 Z M88.0536428,16.7849923 C88.5978733,16.7849923 89.0685591,17.2262603 89.0685591,17.7557818 L89.0685591,17.7557818 L89.0685591,25.9339478 C89.0685591,26.5811408 88.5096197,27.0812445 87.8477178,27.0812445 C87.4211587,27.0812445 87.0681444,26.9047373 86.8180925,26.551723 L86.8180925,26.551723 L82.1553612,20.4475163 L82.1553612,26.125164 C82.1553612,26.6546855 81.7140932,27.0812445 81.1404449,27.0812445 C80.5962144,27.0812445 80.1402375,26.6546855 80.1402375,26.125164 L80.1402375,26.125164 L80.1402375,17.932289 C80.1402375,17.2998049 80.684468,16.7849923 81.3463699,16.7849923 C81.772929,16.7849923 82.1112344,16.9614995 82.3759952,17.3292228 L82.3759952,17.3292228 L87.0387265,23.4187205 L87.0387265,17.7557818 C87.0387265,17.2262603 87.5094123,16.7849923 88.0536428,16.7849923 Z M119.646696,16.9173727 C120.161509,16.9173727 120.55865,17.3292228 120.55865,17.8587443 C120.55865,18.373557 120.161509,18.800116 119.646696,18.800116 L119.646696,18.800116 L117.205014,18.800116 L117.205014,26.0516193 C117.205014,26.6252676 116.719619,27.0812445 116.145971,27.0812445 C115.572322,27.0812445 115.086927,26.6252676 115.086927,26.0516193 L115.086927,26.0516193 L115.086927,18.800116 L112.659954,18.800116 C112.174559,18.800116 111.748,18.373557 111.748,17.8587443 C111.748,17.3292228 112.174559,16.9173727 112.659954,16.9173727 L112.659954,16.9173727 L119.646696,16.9173727 Z M100.00583,16.7839144 L100.212069,16.7849923 C101.065187,16.7849923 101.830052,16.9026638 102.491954,17.1527156 C103.065602,17.3733496 103.345072,17.711655 103.345072,18.1676319 C103.345072,18.7412802 102.903804,19.1531303 102.359573,19.1531303 C101.874179,19.1531303 101.315239,18.6824445 100.167942,18.6824445 C98.4469975,18.6824445 97.049649,20.1092109 97.049649,21.9184095 C97.049649,22.8597811 97.3438276,23.6393545 97.9468938,24.2424207 C98.54996,24.8454869 99.285407,25.1543745 100.167942,25.1543745 C101.594709,25.1543745 101.874179,24.6542708 102.506663,24.6542708 C103.050893,24.6542708 103.492161,25.0661209 103.492161,25.6397692 C103.492161,26.110455 103.124438,26.4487605 102.609625,26.6693944 C101.888887,26.9488641 101.079896,27.0812445 100.182651,27.0812445 C97.1084847,27.0812445 94.8286003,25.0808298 94.8286003,21.9184095 C94.7697645,19.0648767 97.3879544,16.7114477 100.212069,16.7849923 L100.00583,16.7839144 Z M108.446141,16.7702834 C109.196297,16.7702834 109.6964,17.1380067 109.946452,17.8734533 L109.946452,17.8734533 L112.72644,25.6397692 C112.799985,25.8162764 112.829403,25.9780746 112.829403,26.110455 C112.829403,26.6988123 112.388135,27.0812445 111.755651,27.0812445 C111.240838,27.0812445 110.858406,26.8311927 110.740734,26.3752158 L110.740734,26.3752158 L110.225922,24.9043226 L106.592816,24.9043226 L106.078003,26.3752158 C105.916205,26.8459016 105.577899,27.0812445 105.033669,27.0812445 C104.430603,27.0812445 104.018753,26.6399766 104.018753,26.110455 C104.018753,25.9780746 104.062879,25.8309853 104.136424,25.6397692 L104.136424,25.6397692 L106.960539,17.8734533 C107.210591,17.1380067 107.710694,16.7702834 108.446141,16.7702834 Z M17.8095863,16.9173727 C18.3391078,16.9173727 18.72154,17.3292228 18.72154,17.8587443 C18.72154,18.373557 18.3391078,18.800116 17.8095863,18.800116 L17.8095863,18.800116 L13.0586013,18.800116 L13.0586013,20.9623289 L17.0447218,20.9623289 C17.5301166,20.9623289 17.9419666,21.388888 17.9419666,21.9184095 C17.9419666,22.4332221 17.5301166,22.8303633 17.0447218,22.8303633 L17.0447218,22.8303633 L13.0586013,22.8303633 L13.0586013,25.0514119 L17.8095863,25.0514119 C18.3243989,25.0514119 18.72154,25.477971 18.72154,25.9927836 C18.72154,26.5075962 18.3391078,26.9341552 17.8095863,26.9341552 L17.8095863,26.9341552 L11.9995582,26.9341552 C11.396492,26.9341552 10.9405152,26.4781783 10.9405152,25.90453 L10.9405152,25.90453 L10.9405152,17.9469979 C10.9405152,17.3733496 11.396492,16.9173727 11.9995582,16.9173727 L11.9995582,16.9173727 L17.8095863,16.9173727 Z M3.98612049,16.9173727 C5.69235656,16.9173727 7.03086935,17.285096 8.10462136,18.4471016 C8.9136126,19.3149286 9.3254627,20.4769342 9.3254627,21.9184095 C9.3254627,23.4922652 8.84006794,24.7131065 7.88398739,25.6103513 C6.81023537,26.6105587 5.42759579,26.9341552 3.78019544,26.9341552 L3.78019544,26.9341552 L1.05904308,26.9341552 C0.45597688,26.9341552 0,26.4781783 0,25.90453 L0,25.90453 L0,17.9469979 C0,17.3733496 0.45597688,16.9173727 1.05904308,16.9173727 L1.05904308,16.9173727 L3.98612049,16.9173727 Z M3.67723292,18.6971535 L2.11808616,18.6971535 L2.11808616,25.1543745 L3.6183972,25.1543745 C4.80982066,25.1543745 5.7070655,24.8454869 6.32484063,24.2277118 C6.8690711,23.6834813 7.1485408,22.9039079 7.1485408,21.9184095 C7.1485408,20.9329111 6.89848896,20.1827556 6.38367635,19.6385251 C5.79531909,19.006041 4.89807425,18.6971535 3.67723292,18.6971535 L3.67723292,18.6971535 Z M130.672535,18.7706981 C129.77529,18.7706981 129.039844,19.0795857 128.451486,19.6826519 C127.863129,20.2857181 127.56895,21.0505825 127.56895,21.9478274 C127.56895,22.8450722 127.863129,23.6099366 128.451486,24.2130028 C129.039844,24.816069 129.77529,25.1102477 130.672535,25.1102477 C131.56978,25.1102477 132.319935,24.816069 132.908293,24.2130028 C133.49665,23.6099366 133.790829,22.8450722 133.790829,21.9478274 C133.790829,21.0505825 133.49665,20.2857181 132.908293,19.6826519 C132.319935,19.0795857 131.56978,18.7706981 130.672535,18.7706981 Z M37.7166897,18.7706981 C36.8194449,18.7706981 36.0839983,19.0795857 35.495641,19.6826519 C34.9072838,20.2857181 34.6131051,21.0505825 34.6131051,21.9478274 C34.6131051,22.8450722 34.9072838,23.6099366 35.495641,24.2130028 C36.0839983,24.816069 36.8194449,25.1102477 37.7166897,25.1102477 C38.6139345,25.1102477 39.3640901,24.816069 39.9524473,24.2130028 C40.5408046,23.6099366 40.8349832,22.8450722 40.8349832,21.9478274 C40.8349832,21.0505825 40.5408046,20.2857181 39.9524473,19.6826519 C39.3640901,19.0795857 38.6139345,18.7706981 37.7166897,18.7706981 Z M108.431432,19.4326 L107.122337,23.1980865 L109.711109,23.1980865 L108.431432,19.4326 Z" id="Shape"></path>
            </g>
        </g>
    </g>
</svg>