<?xml version="1.0" encoding="UTF-8"?>
<svg width="148px" height="28px" viewBox="0 0 148 28" version="1.1" xmlns="http://www.w3.org/2000/svg" xmlns:xlink="http://www.w3.org/1999/xlink">
    <title>Logo-DC-Gris</title>
    <g id="Page-4" stroke="none" stroke-width="1" fill="none" fill-rule="evenodd">
        <path d="M0.952,13.6608742 C0.952,14.2345226 1.40797688,14.6904995 2.01104308,14.6904995 L4.73219544,14.6904995 C6.37959579,14.6904995 7.76223537,14.366903 8.83598739,13.3666956 C9.79206794,12.4694508 10.2774627,11.2486094 10.2774627,9.67475376 C10.2774627,8.23327845 9.8656126,7.07127285 9.05662136,6.20344588 C7.98286935,5.04144028 6.64435656,4.67371698 4.93812049,4.67371698 L2.01104308,4.67371698 C1.40797688,4.67371698 0.952,5.12969387 0.952,5.7033422 L0.952,13.6608742 Z M3.07008616,6.45349772 L4.62923292,6.45349772 C5.85007425,6.45349772 6.74731909,6.76238528 7.33567635,7.39486935 C7.85048896,7.93909982 8.1005408,8.68925534 8.1005408,9.67475376 C8.1005408,10.6602522 7.8210711,11.4398256 7.27684063,11.984056 C6.6590655,12.6018312 5.76182066,12.9107187 4.5703972,12.9107187 L3.07008616,12.9107187 L3.07008616,6.45349772 Z M11.8925152,13.6608742 C11.8925152,14.2345226 12.348492,14.6904995 12.9515582,14.6904995 L18.7615863,14.6904995 C19.2911078,14.6904995 19.67354,14.2639404 19.67354,13.7491278 C19.67354,13.2343152 19.2763989,12.8077562 18.7615863,12.8077562 L14.0106013,12.8077562 L14.0106013,10.5867075 L17.9967218,10.5867075 C18.4821166,10.5867075 18.8939666,10.1895664 18.8939666,9.67475376 C18.8939666,9.14523222 18.4821166,8.7186732 17.9967218,8.7186732 L14.0106013,8.7186732 L14.0106013,6.55646024 L18.7615863,6.55646024 C19.2911078,6.55646024 19.67354,6.12990122 19.67354,5.61508861 C19.67354,5.08556707 19.2911078,4.67371698 18.7615863,4.67371698 L12.9515582,4.67371698 C12.348492,4.67371698 11.8925152,5.12969387 11.8925152,5.7033422 L11.8925152,13.6608742 Z M14.3636157,2.84980946 C14.3636157,3.18811488 14.6577943,3.46758459 15.0108087,3.46758459 C15.2608605,3.46758459 15.4667856,3.3352042 15.6432927,3.0557345 L16.5405376,1.58484133 C16.672918,1.36420735 16.7317537,1.18770017 16.7317537,1.08473765 C16.7317537,0.687596497 16.3787393,0.364 15.9668892,0.364 C15.6580017,0.364 15.4226588,0.525798249 15.2755694,0.849394746 L14.4959961,2.39383257 C14.4077425,2.57033975 14.3636157,2.71742907 14.3636157,2.84980946 Z M21.1415032,13.8079636 C21.1415032,14.3816119 21.612189,14.8375888 22.2005463,14.8375888 C22.7741946,14.8375888 23.2595893,14.3816119 23.2595893,13.8079636 L23.2595893,11.6751685 L25.5247648,11.6751685 C26.4808454,11.6751685 27.2457098,11.4545345 27.8193582,10.9985576 C28.6430583,10.3660735 29.143162,9.36586619 29.143162,8.17444273 C29.143162,7.04185499 28.6871851,6.05635656 27.9223207,5.4238725 C27.3045455,4.92376882 26.5102632,4.67371698 25.5247648,4.67371698 L22.2005463,4.67371698 C21.612189,4.67371698 21.1415032,5.12969387 21.1415032,5.7033422 L21.1415032,13.8079636 Z M23.2595893,6.52704238 L25.2452951,6.52704238 C25.7159809,6.52704238 26.0837042,6.6300049 26.3631739,6.82122101 C26.7897329,7.10069071 26.995658,7.54195866 26.995658,8.17444273 C26.995658,8.80692679 26.775024,9.2776126 26.3337561,9.55708231 C26.0689953,9.73358949 25.6865631,9.82184308 25.2011683,9.82184308 L23.2595893,9.82184308 L23.2595893,6.52704238 Z M29.8168428,13.8667993 C29.8168428,14.3963208 30.2286929,14.8375888 30.8317591,14.8375888 C31.3759896,14.8375888 31.714295,14.6022459 31.8760933,14.1315601 L32.3909059,12.6606669 L36.024012,12.6606669 L36.5388246,14.1315601 C36.6564961,14.5875369 37.0389283,14.8375888 37.5537409,14.8375888 C38.186225,14.8375888 38.6274929,14.4551566 38.6274929,13.8667993 C38.6274929,13.7344189 38.5980751,13.5726207 38.5245304,13.3961135 L35.7445423,5.62979754 C35.4944905,4.89435096 34.9943868,4.52662767 34.2442313,4.52662767 C33.5087847,4.52662767 33.008681,4.89435096 32.7586292,5.62979754 L29.9345143,13.3961135 C29.8609696,13.5873296 29.8168428,13.7344189 29.8168428,13.8667993 Z M34.2295224,7.1889443 L35.5091994,10.9544308 L32.9204274,10.9544308 L34.2295224,7.1889443 Z M39.7865685,13.8079636 C39.7865685,14.3816119 40.2425454,14.8375888 40.8456116,14.8375888 C41.4192599,14.8375888 41.9046547,14.3816119 41.9046547,13.8079636 L41.9046547,11.2044827 L43.9639051,11.2044827 L46.0378645,14.3374851 C46.2584985,14.6757905 46.567386,14.8375888 46.9351093,14.8375888 C47.5234666,14.8375888 47.9941524,14.366903 47.9941524,13.7638368 C47.9941524,13.5726207 47.9353167,13.3814045 47.8176452,13.2048974 L46.1702449,10.8367594 C46.4202967,10.7190879 46.6556396,10.5719986 46.8762736,10.3807825 C47.6264291,9.73358949 47.9941524,8.90988931 47.9941524,7.92439089 C47.9941524,6.82122101 47.5528844,5.89455831 46.8321468,5.35032784 C46.2143717,4.89435096 45.3759626,4.67371698 44.3022105,4.67371698 L40.8456116,4.67371698 C40.2425454,4.67371698 39.7865685,5.12969387 39.7865685,5.7033422 L39.7865685,13.8079636 Z M41.9046547,6.46820665 L44.1404123,6.46820665 C44.6110981,6.46820665 44.9935303,6.55646024 45.287709,6.74767635 C45.6554323,7.01243712 45.8466484,7.40957828 45.8466484,7.95380875 C45.8466484,8.51274816 45.6407233,8.92459824 45.2435822,9.17465008 C44.9788214,9.33644833 44.5963892,9.42470192 44.1109944,9.42470192 L41.9046547,9.42470192 L41.9046547,6.46820665 Z M49.6533317,4.67371698 C49.1679369,4.67371698 48.7413779,5.08556707 48.7413779,5.61508861 C48.7413779,6.12990122 49.1679369,6.55646024 49.6533317,6.55646024 L52.0803054,6.55646024 L52.0803054,13.8079636 C52.0803054,14.3816119 52.5657001,14.8375888 53.1393485,14.8375888 C53.7129968,14.8375888 54.1983915,14.3816119 54.1983915,13.8079636 L54.1983915,6.55646024 L56.6400742,6.55646024 C57.1548868,6.55646024 57.552028,6.12990122 57.552028,5.61508861 C57.552028,5.08556707 57.1548868,4.67371698 56.6400742,4.67371698 L49.6533317,4.67371698 Z M58.5787232,13.6608742 C58.5787232,14.2345226 59.0347001,14.6904995 59.6377663,14.6904995 L65.4477943,14.6904995 C65.9773158,14.6904995 66.359748,14.2639404 66.359748,13.7491278 C66.359748,13.2343152 65.9626069,12.8077562 65.4477943,12.8077562 L60.6968093,12.8077562 L60.6968093,10.5867075 L64.6829298,10.5867075 C65.1683246,10.5867075 65.5801747,10.1895664 65.5801747,9.67475376 C65.5801747,9.14523222 65.1683246,8.7186732 64.6829298,8.7186732 L60.6968093,8.7186732 L60.6968093,6.55646024 L65.4477943,6.55646024 C65.9773158,6.55646024 66.359748,6.12990122 66.359748,5.61508861 C66.359748,5.08556707 65.9773158,4.67371698 65.4477943,4.67371698 L59.6377663,4.67371698 C59.0347001,4.67371698 58.5787232,5.12969387 58.5787232,5.7033422 L58.5787232,13.6608742 Z M67.8277112,13.8520904 C67.8277112,14.3963208 68.2395613,14.8375888 68.8426275,14.8375888 C69.4456937,14.8375888 69.8722527,14.3963208 69.8722527,13.8520904 L69.8722527,8.35094991 L71.9756299,11.8958024 C72.2256818,12.3223615 72.5786961,12.5429954 73.0052551,12.5429954 C73.4318142,12.5429954 73.7848285,12.3223615 74.0348804,11.8958024 L76.1382576,8.35094991 L76.1382576,13.8520904 C76.1382576,14.3963208 76.5501077,14.8375888 77.1531739,14.8375888 C77.7562401,14.8375888 78.1827991,14.3963208 78.1827991,13.8520904 L78.1827991,5.83572259 C78.1827991,5.08556707 77.6532776,4.5413366 76.8442863,4.5413366 C76.3294737,4.5413366 75.9470415,4.76197057 75.6969896,5.20323853 L72.9905462,9.86596987 L70.3135206,5.20323853 C70.0487599,4.76197057 69.6663276,4.5413366 69.151515,4.5413366 C68.3719417,4.5413366 67.8277112,5.08556707 67.8277112,5.83572259 L67.8277112,13.8520904 Z M80.2097016,13.6608742 C80.2097016,14.2345226 80.6656785,14.6904995 81.2687447,14.6904995 L87.0787727,14.6904995 C87.6082943,14.6904995 87.9907265,14.2639404 87.9907265,13.7491278 C87.9907265,13.2343152 87.5935854,12.8077562 87.0787727,12.8077562 L82.3277878,12.8077562 L82.3277878,10.5867075 L86.3139083,10.5867075 C86.799303,10.5867075 87.2111531,10.1895664 87.2111531,9.67475376 C87.2111531,9.14523222 86.799303,8.7186732 86.3139083,8.7186732 L82.3277878,8.7186732 L82.3277878,6.55646024 L87.0787727,6.55646024 C87.6082943,6.55646024 87.9907265,6.12990122 87.9907265,5.61508861 C87.9907265,5.08556707 87.6082943,4.67371698 87.0787727,4.67371698 L81.2687447,4.67371698 C80.6656785,4.67371698 80.2097016,5.12969387 80.2097016,5.7033422 L80.2097016,13.6608742 Z M89.4586897,13.8815082 C89.4586897,14.4110298 89.9146665,14.8375888 90.458897,14.8375888 C91.0325454,14.8375888 91.4738133,14.4110298 91.4738133,13.8815082 L91.4738133,8.20386059 L96.1365446,14.3080672 C96.3865965,14.6610816 96.7396108,14.8375888 97.1661699,14.8375888 C97.8280718,14.8375888 98.3870112,14.3374851 98.3870112,13.6902921 L98.3870112,5.51212609 C98.3870112,4.98260455 97.9163254,4.5413366 97.3720949,4.5413366 C96.8278644,4.5413366 96.3571786,4.98260455 96.3571786,5.51212609 L96.3571786,11.1750648 L91.6944473,5.08556707 C91.4296865,4.71784378 91.0913811,4.5413366 90.6648221,4.5413366 C90.0029201,4.5413366 89.4586897,5.05614921 89.4586897,5.68863327 L89.4586897,13.8815082 Z M100.32566,4.67371698 C99.8402654,4.67371698 99.4137064,5.08556707 99.4137064,5.61508861 C99.4137064,6.12990122 99.8402654,6.55646024 100.32566,6.55646024 L102.752634,6.55646024 L102.752634,13.8079636 C102.752634,14.3816119 103.238029,14.8375888 103.811677,14.8375888 C104.385325,14.8375888 104.87072,14.3816119 104.87072,13.8079636 L104.87072,6.55646024 L107.312403,6.55646024 C107.827215,6.55646024 108.224356,6.12990122 108.224356,5.61508861 C108.224356,5.08556707 107.827215,4.67371698 107.312403,4.67371698 L100.32566,4.67371698 Z M93.1065047,17.1489923 C93.694862,17.1489923 94.1655478,17.6049692 94.1655478,18.1786176 L94.1655478,18.1786176 L94.1655478,26.4156193 C94.1655478,26.9892676 93.6801531,27.4452445 93.1065047,27.4452445 C92.5181475,27.4452445 92.0474616,26.9892676 92.0474616,26.4156193 L92.0474616,26.4156193 L92.0474616,18.1786176 C92.0474616,17.6049692 92.5181475,17.1489923 93.1065047,17.1489923 Z M29.742984,17.1479144 L29.9492232,17.1489923 C30.8023413,17.1489923 31.5672057,17.2666638 32.2291076,17.5167156 C32.802756,17.7373496 33.0822257,18.075655 33.0822257,18.5316319 C33.0822257,19.1052802 32.6409577,19.5171303 32.0967273,19.5171303 C31.6113325,19.5171303 31.0523931,19.0464445 29.9050964,19.0464445 C28.1841514,19.0464445 26.7868029,20.4732109 26.7868029,22.2824095 C26.7868029,23.2237811 27.0809816,24.0033545 27.6840478,24.6064207 C28.287114,25.2094869 29.0225605,25.5183745 29.9050964,25.5183745 C31.3318628,25.5183745 31.6113325,25.0182708 32.2438166,25.0182708 C32.788047,25.0182708 33.229315,25.4301209 33.229315,26.0037692 C33.229315,26.474455 32.8615917,26.8127605 32.3467791,27.0333944 C31.6260414,27.3128641 30.8170502,27.4452445 29.9198054,27.4452445 C26.8456386,27.4452445 24.5657542,25.4448298 24.5657542,22.2824095 C24.5069185,19.4288767 27.1251083,17.0754477 29.9492232,17.1489923 Z M36.5800214,17.5314246 C38.5510183,16.7371422 41.1250813,17.2078281 42.478303,18.5757587 C43.9344872,19.811309 44.5081356,22.4736256 43.6108908,24.4152046 C42.8166084,26.2979478 40.9485741,27.4452445 38.6833986,27.4452445 C35.7121944,27.5040802 33.2705118,25.3418673 33.3146386,22.3118274 C33.3146386,19.9878161 34.6531514,18.2521622 36.5800214,17.5314246 Z M54.6690774,17.1489923 C55.4780686,17.1489923 56.0075901,17.6932228 56.0075901,18.4433783 L56.0075901,18.4433783 L56.0075901,26.4597461 C56.0075901,27.0039766 55.5810311,27.4452445 54.9779649,27.4452445 C54.3748987,27.4452445 53.9630486,27.0039766 53.9630486,26.4597461 L53.9630486,26.4597461 L53.9630486,20.9586056 L51.8596714,24.5034582 C51.6096196,24.9300172 51.2566052,25.1506512 50.8300462,25.1506512 C50.4034872,25.1506512 50.0504728,24.9300172 49.800421,24.5034582 L49.800421,24.5034582 L47.6970437,20.9586056 L47.6970437,26.4597461 C47.6970437,27.0039766 47.2704847,27.4452445 46.6674185,27.4452445 C46.0643523,27.4452445 45.6525022,27.0039766 45.6525022,26.4597461 L45.6525022,26.4597461 L45.6525022,18.4433783 C45.6525022,17.6932228 46.1967327,17.1489923 46.9763061,17.1489923 C47.4911187,17.1489923 47.8735509,17.3696263 48.1383117,17.8108943 L48.1383117,17.8108943 L50.8153373,22.4736256 L53.5217807,17.8108943 C53.7718325,17.3696263 54.1542648,17.1489923 54.6690774,17.1489923 Z M146.521753,17.1489923 C147.065983,17.1489923 147.536669,17.5902603 147.536669,18.1197818 L147.536669,18.1197818 L147.536669,26.2979478 C147.536669,26.9451408 146.97773,27.4452445 146.315828,27.4452445 C145.889269,27.4452445 145.536254,27.2687373 145.286203,26.915723 L145.286203,26.915723 L140.623471,20.8115163 L140.623471,26.489164 C140.623471,27.0186855 140.182203,27.4452445 139.608555,27.4452445 C139.064324,27.4452445 138.608348,27.0186855 138.608348,26.489164 L138.608348,26.489164 L138.608348,18.296289 C138.608348,17.6638049 139.152578,17.1489923 139.81448,17.1489923 C140.241039,17.1489923 140.579344,17.3254995 140.844105,17.6932228 L140.844105,17.6932228 L145.506837,23.7827205 L145.506837,18.1197818 C145.506837,17.5902603 145.977522,17.1489923 146.521753,17.1489923 Z M67.0510678,17.1489923 C67.8600591,17.1489923 68.3895806,17.6932228 68.3895806,18.4433783 L68.3895806,18.4433783 L68.3895806,26.4597461 C68.3895806,27.0039766 67.9630216,27.4452445 67.3599554,27.4452445 C66.7568892,27.4452445 66.3450391,27.0039766 66.3450391,26.4597461 L66.3450391,26.4597461 L66.3450391,20.9586056 L64.2416619,24.5034582 C63.99161,24.9300172 63.6385957,25.1506512 63.2120367,25.1506512 C62.7854776,25.1506512 62.4324633,24.9300172 62.1824114,24.5034582 L62.1824114,24.5034582 L60.0790342,20.9586056 L60.0790342,26.4597461 C60.0790342,27.0039766 59.6524752,27.4452445 59.049409,27.4452445 C58.4463428,27.4452445 58.0344927,27.0039766 58.0344927,26.4597461 L58.0344927,26.4597461 L58.0344927,18.4433783 C58.0344927,17.6932228 58.5787232,17.1489923 59.3582966,17.1489923 C59.8731092,17.1489923 60.2555414,17.3696263 60.5203022,17.8108943 L60.5203022,17.8108943 L63.1973277,22.4736256 L65.9037712,17.8108943 C66.153823,17.3696263 66.5362552,17.1489923 67.0510678,17.1489923 Z M129.535867,17.5314246 C131.506864,16.7371422 134.080927,17.2078281 135.434148,18.5757587 C136.890333,19.811309 137.463981,22.4736256 136.566736,24.4152046 C135.772454,26.2979478 133.904419,27.4452445 131.639244,27.4452445 C128.66804,27.5040802 126.226357,25.3418673 126.270484,22.3118274 C126.270484,19.9878161 127.608997,18.2521622 129.535867,17.5314246 Z M123.596388,17.1489923 C124.184746,17.1489923 124.655431,17.6049692 124.655431,18.1786176 L124.655431,18.1786176 L124.655431,26.4156193 C124.655431,26.9892676 124.170037,27.4452445 123.596388,27.4452445 C123.008031,27.4452445 122.537345,26.9892676 122.537345,26.4156193 L122.537345,26.4156193 L122.537345,18.1786176 C122.537345,17.6049692 123.008031,17.1489923 123.596388,17.1489923 Z M78.0357098,17.1489923 C78.6093581,17.1489923 79.0947529,17.6049692 79.0947529,18.1786176 L79.0947529,18.1786176 L79.0947529,23.3414526 C79.0947529,24.4740403 78.7858653,25.3859941 78.1827991,26.1067317 C77.4032257,27.0039766 76.255929,27.4452445 74.7409091,27.4452445 C73.2258891,27.4452445 72.0785924,27.0039766 71.2990191,26.1067317 C70.6959529,25.3859941 70.3870653,24.4740403 70.3870653,23.3414526 L70.3870653,23.3414526 L70.3870653,18.1786176 C70.3870653,17.6049692 70.87246,17.1489923 71.4461084,17.1489923 C72.0491746,17.1489923 72.5051515,17.6049692 72.5051515,18.1786176 L72.5051515,18.1786176 L72.5051515,23.0914007 C72.5051515,23.8121384 72.6669497,24.3857867 73.0052551,24.7976368 C73.3729784,25.2683226 73.9466268,25.5036655 74.7262001,25.5036655 C75.5204825,25.5036655 76.1088397,25.2683226 76.476563,24.7976368 C76.8148684,24.3857867 76.9766667,23.8121384 76.9766667,23.0914007 L76.9766667,23.0914007 L76.9766667,18.1786176 C76.9766667,17.6049692 77.4326436,17.1489923 78.0357098,17.1489923 Z M89.0056428,17.1489923 C89.5498733,17.1489923 90.0205591,17.5902603 90.0205591,18.1197818 L90.0205591,18.1197818 L90.0205591,26.2979478 C90.0205591,26.9451408 89.4616197,27.4452445 88.7997178,27.4452445 C88.3731587,27.4452445 88.0201444,27.2687373 87.7700925,26.915723 L87.7700925,26.915723 L83.1073612,20.8115163 L83.1073612,26.489164 C83.1073612,27.0186855 82.6660932,27.4452445 82.0924449,27.4452445 C81.5482144,27.4452445 81.0922375,27.0186855 81.0922375,26.489164 L81.0922375,26.489164 L81.0922375,18.296289 C81.0922375,17.6638049 81.636468,17.1489923 82.2983699,17.1489923 C82.724929,17.1489923 83.0632344,17.3254995 83.3279952,17.6932228 L83.3279952,17.6932228 L87.9907265,23.7827205 L87.9907265,18.1197818 C87.9907265,17.5902603 88.4614123,17.1489923 89.0056428,17.1489923 Z M120.598696,17.2813727 C121.113509,17.2813727 121.51065,17.6932228 121.51065,18.2227443 C121.51065,18.737557 121.113509,19.164116 120.598696,19.164116 L120.598696,19.164116 L118.157014,19.164116 L118.157014,26.4156193 C118.157014,26.9892676 117.671619,27.4452445 117.097971,27.4452445 C116.524322,27.4452445 116.038927,26.9892676 116.038927,26.4156193 L116.038927,26.4156193 L116.038927,19.164116 L113.611954,19.164116 C113.126559,19.164116 112.7,18.737557 112.7,18.2227443 C112.7,17.6932228 113.126559,17.2813727 113.611954,17.2813727 L113.611954,17.2813727 Z M100.95783,17.1479144 L101.164069,17.1489923 C102.017187,17.1489923 102.782052,17.2666638 103.443954,17.5167156 C104.017602,17.7373496 104.297072,18.075655 104.297072,18.5316319 C104.297072,19.1052802 103.855804,19.5171303 103.311573,19.5171303 C102.826179,19.5171303 102.267239,19.0464445 101.119942,19.0464445 C99.3989975,19.0464445 98.001649,20.4732109 98.001649,22.2824095 C98.001649,23.2237811 98.2958276,24.0033545 98.8988938,24.6064207 C99.50196,25.2094869 100.237407,25.5183745 101.119942,25.5183745 C102.546709,25.5183745 102.826179,25.0182708 103.458663,25.0182708 C104.002893,25.0182708 104.444161,25.4301209 104.444161,26.0037692 C104.444161,26.474455 104.076438,26.8127605 103.561625,27.0333944 C102.840887,27.3128641 102.031896,27.4452445 101.134651,27.4452445 C98.0604847,27.4452445 95.7806003,25.4448298 95.7806003,22.2824095 C95.7217645,19.4288767 98.3399544,17.0754477 101.164069,17.1489923 Z M109.398141,17.1342834 C110.148297,17.1342834 110.6484,17.5020067 110.898452,18.2374533 L110.898452,18.2374533 L113.67844,26.0037692 C113.751985,26.1802764 113.781403,26.3420746 113.781403,26.474455 C113.781403,27.0628123 113.340135,27.4452445 112.707651,27.4452445 C112.192838,27.4452445 111.810406,27.1951927 111.692734,26.7392158 L111.692734,26.7392158 L111.177922,25.2683226 L107.544816,25.2683226 L107.030003,26.7392158 C106.868205,27.2099016 106.529899,27.4452445 105.985669,27.4452445 C105.382603,27.4452445 104.970753,27.0039766 104.970753,26.474455 C104.970753,26.3420746 105.014879,26.1949853 105.088424,26.0037692 L105.088424,26.0037692 L107.912539,18.2374533 C108.162591,17.5020067 108.662694,17.1342834 109.398141,17.1342834 Z M18.7615863,17.2813727 C19.2911078,17.2813727 19.67354,17.6932228 19.67354,18.2227443 C19.67354,18.737557 19.2911078,19.164116 18.7615863,19.164116 L18.7615863,19.164116 L14.0106013,19.164116 L14.0106013,21.3263289 L17.9967218,21.3263289 C18.4821166,21.3263289 18.8939666,21.752888 18.8939666,22.2824095 C18.8939666,22.7972221 18.4821166,23.1943633 17.9967218,23.1943633 L17.9967218,23.1943633 L14.0106013,23.1943633 L14.0106013,25.4154119 L18.7615863,25.4154119 C19.2763989,25.4154119 19.67354,25.841971 19.67354,26.3567836 C19.67354,26.8715962 19.2911078,27.2981552 18.7615863,27.2981552 L18.7615863,27.2981552 L12.9515582,27.2981552 C12.348492,27.2981552 11.8925152,26.8421783 11.8925152,26.26853 L11.8925152,26.26853 L11.8925152,18.3109979 C11.8925152,17.7373496 12.348492,17.2813727 12.9515582,17.2813727 L12.9515582,17.2813727 Z M4.93812049,17.2813727 C6.64435656,17.2813727 7.98286935,17.649096 9.05662136,18.8111016 C9.8656126,19.6789286 10.2774627,20.8409342 10.2774627,22.2824095 C10.2774627,23.8562652 9.79206794,25.0771065 8.83598739,25.9743513 C7.76223537,26.9745587 6.37959579,27.2981552 4.73219544,27.2981552 L4.73219544,27.2981552 L2.01104308,27.2981552 C1.40797688,27.2981552 0.952,26.8421783 0.952,26.26853 L0.952,26.26853 L0.952,18.3109979 C0.952,17.7373496 1.40797688,17.2813727 2.01104308,17.2813727 L2.01104308,17.2813727 Z M4.62923292,19.0611535 L3.07008616,19.0611535 L3.07008616,25.5183745 L4.5703972,25.5183745 C5.76182066,25.5183745 6.6590655,25.2094869 7.27684063,24.5917118 C7.8210711,24.0474813 8.1005408,23.2679079 8.1005408,22.2824095 C8.1005408,21.2969111 7.85048896,20.5467556 7.33567635,20.0025251 C6.74731909,19.370041 5.85007425,19.0611535 4.62923292,19.0611535 L4.62923292,19.0611535 Z M131.624535,19.1346981 C130.72729,19.1346981 129.991844,19.4435857 129.403486,20.0466519 C128.815129,20.6497181 128.52095,21.4145825 128.52095,22.3118274 C128.52095,23.2090722 128.815129,23.9739366 129.403486,24.5770028 C129.991844,25.180069 130.72729,25.4742477 131.624535,25.4742477 C132.52178,25.4742477 133.271935,25.180069 133.860293,24.5770028 C134.44865,23.9739366 134.742829,23.2090722 134.742829,22.3118274 C134.742829,21.4145825 134.44865,20.6497181 133.860293,20.0466519 C133.271935,19.4435857 132.52178,19.1346981 131.624535,19.1346981 Z M38.6686897,19.1346981 C37.7714449,19.1346981 37.0359983,19.4435857 36.447641,20.0466519 C35.8592838,20.6497181 35.5651051,21.4145825 35.5651051,22.3118274 C35.5651051,23.2090722 35.8592838,23.9739366 36.447641,24.5770028 C37.0359983,25.180069 37.7714449,25.4742477 38.6686897,25.4742477 C39.5659345,25.4742477 40.3160901,25.180069 40.9044473,24.5770028 C41.4928046,23.9739366 41.7869832,23.2090722 41.7869832,22.3118274 C41.7869832,21.4145825 41.4928046,20.6497181 40.9044473,20.0466519 C40.3160901,19.4435857 39.5659345,19.1346981 38.6686897,19.1346981 Z M109.383432,19.7966 L108.074337,23.5620865 L110.663109,23.5620865 L109.383432,19.7966 Z" id="Logo-DC-Gris" fill="#B3B3B3" fill-rule="nonzero"></path>
    </g>
</svg>